<svg id="VahakLogoBlue_n_svg__Layer_1" xmlns="http://www.w3.org/2000/svg" x="0" y="0" viewBox="0 0 1213 484"
  xml:space="preserve">
  <style>
    .VahakLogoBlue_n_svg__st2 {
      fill: #2355fc
    }
  </style>
  <path
    d="M200.15 207.6a72.996 72.996 0 01-6.38 32.04c-1.33 2.14-2.77 4.2-4.33 6.17 1.68-.32 3.31-.86 4.85-1.62a22.54 22.54 0 009.75-24.17 44.32 44.32 0 00-3.92-12.41m117.32-30.27h-7.83c3.17 12.51 8.65 24.33 16.16 34.83 5.73 8.92 11.75 17.62 16.89 26.89a167.1 167.1 0 0121.35 65.02c3.79 39.01-16.72 70.76-52.02 87.77-22.29 10.7-42.45 15.91-60.02 28.77a108.062 108.062 0 00-26.28 29.79c1.87-41.56 41.8-50.22 73.48-65.66 36.39-17.76 52.25-46.61 47.77-84.72-5.23-32.99-18.51-55.06-34.02-80.54-7.59-11.39-14-23.53-19.11-36.23a71.112 71.112 0 01-4.03-20.46 244.336 244.336 0 00-139.72 0 71.491 71.491 0 01-4.01 20.46 204.278 204.278 0 01-19.12 36.24c-15.52 25.48-28.8 47.51-34.02 80.54-4.48 38.12 11.39 66.95 47.77 84.72 31.68 15.44 71.61 24.1 73.46 65.66a108.301 108.301 0 00-26.25-29.8c-17.61-12.86-37.81-18.11-60.06-28.77-35.26-17-55.85-48.76-52.01-87.77 2.59-22.9 9.85-45.03 21.33-65.02 5.14-9.26 11.14-17.97 16.9-26.89 7.52-10.5 13-22.31 16.16-34.83h-7.8c-2.77 8.7-6.69 16.98-11.67 24.63-19.59 31.94-42.07 59.79-43.7 99.78-.12 9.05.46 18.1 1.74 27.07a55.361 55.361 0 01-9.75-25.44 85.276 85.276 0 011.91-31.78c5.83-24.28 19.59-45.17 31.34-66.69a93.554 93.554 0 0013.05-32.18c1.1-7.61-2.93-15.04-9.9-18.28 3.04-2 6.53-3.2 10.15-3.48 5.1-.31 10.04 1.81 13.34 5.71a303.577 303.577 0 00-7.3-34.3c-2.27-8.57-5-17.01-8.17-25.28-2.1-5.58-4.04-10.29-5.36-13.39H96.7c-6.57.43-12.26-4.51-12.77-11.08 1.01-7.06 7.55-11.97 14.62-10.96a12.92 12.92 0 0110.97 11.03c-.09 3.74-2.13 7.17-5.38 9.03a233.701 233.701 0 0034.43 37.98c14.18-6.36 22.42-21.35 20.2-36.74-6.17-.08-11.25-4.88-11.67-11.04 1.01-7.06 7.55-11.97 14.62-10.96A12.92 12.92 0 01172.69 72c-.32 5.39-4.32 9.85-9.64 10.74a55.728 55.728 0 0031.27 23.81 62.369 62.369 0 01-12.18 17.1c-11.32 2.5-22.3 6.3-32.74 11.34-5.54.19-11.07-.35-16.47-1.6-1.21-.42-2.48-.64-3.76-.67 3.42 5.6 6.1 11.62 7.95 17.91 41.32-16.72 123.99-16.67 165.62.13a82.21 82.21 0 017.78-18.11c-1.28.02-2.55.25-3.76.67a63.358 63.358 0 01-16.47 1.6 149.694 149.694 0 00-32.78-11.34 62.732 62.732 0 01-12.18-17.1 55.761 55.761 0 0031.29-23.81 11.5 11.5 0 01-9.6-10.7c1.01-7.07 7.56-11.98 14.63-10.97 5.71.82 10.2 5.32 10.98 11.04-.43 6.15-5.5 10.95-11.67 11.04-2.22 15.38 6.02 30.37 20.2 36.74a248.905 248.905 0 0034.62-37.98 10.68 10.68 0 01-5.39-9.03c1.01-7.06 7.55-11.97 14.62-10.96a12.92 12.92 0 0110.97 11.03c-.48 6.6-6.2 11.58-12.8 11.14h-1.47c-1.33 3.09-3.26 7.78-5.36 13.39a257.8 257.8 0 00-8.09 25.27 326.969 326.969 0 00-8.2 35.22c3.22-4.64 8.62-7.28 14.26-6.97 3.62.28 7.12 1.48 10.15 3.48-6.98 3.24-11 10.67-9.9 18.28a93.199 93.199 0 0013.05 32.18c11.77 21.54 25.48 42.42 31.36 66.69a85.652 85.652 0 011.93 31.81 55.583 55.583 0 01-9.75 25.44c1.29-8.96 1.87-18.01 1.76-27.07-1.67-40.01-24.13-67.84-43.7-99.78a102.19 102.19 0 01-11.72-24.63M222.93 55.9c5.39-.95 9.42-5.49 9.73-10.95-1.04-7.24-7.74-12.26-14.98-11.23-5.82.83-10.4 5.41-11.23 11.23.34 5.72 4.69 10.41 10.37 11.17a154.888 154.888 0 01-27.56 65.49l-.1.23h61.4l-.08-.23a154.889 154.889 0 01-27.57-65.69m39.56 282.18c-9.59 16.72-17.79 14.28-26.11 10.58a35.619 35.619 0 00-32.63-.17c-8.44 3.8-16.72 6.62-26.47-10.4a13.127 13.127 0 00.92 16.58c11.52 9.69 31.52 12.23 39.83 32.04.4 4.69 3.33 4.69 3.73 0 8.34-19.76 28.34-22.29 39.82-32.04 4.21-4.61 4.6-11.54.91-16.59m-70.9-140.03c2.44 14.01.17 28.43-6.45 41.01-4.17 6.52-8.89 12.64-13.12 18.64-16.47 23.39-15.69 47.25-3.46 64.09a78.785 78.785 0 0128.72-18.11c4.53-1.88 9.19-3.46 13.93-4.73 3.55-12.22-9.05-31.57-18.11-35.38-3.95-1.4-8.04-2.38-12.2-2.9 0 0 .6-2.31 9.17-8.34 5.87-3.46 13.07-3.8 19.24-.92 3.23 1.23 6.63 1.93 10.09 2.08h.89c3.45-.12 6.85-.82 10.07-2.08a20.833 20.833 0 0119.26.92c8.61 5.99 9.17 8.34 9.17 8.34-4.16.52-8.25 1.5-12.2 2.9-9.13 3.8-21.72 23.16-18.11 35.38 4.75 1.24 9.4 2.82 13.93 4.73a80.371 80.371 0 0128.72 18.11c12.25-16.85 13.01-40.7-3.45-64.09-4.17-6-8.9-12.12-13.12-18.64-6.63-12.58-8.9-27-6.45-41.01a97.304 97.304 0 0130.84-3.47c7.26-.01 14.11 3.36 18.53 9.11 0 0-10.39.92-13.26 5.58-2.87 4.66-5 3.69-8.34 3.69-25.76 0-10.59-5.99-21.25-11.14-.28 5.23-.05 10.47.71 15.65a89.329 89.329 0 0021.37 38.7c19.95 25.5 29.72 68.44-2.28 90.78-12.45-18-31.93-37.03-53.87-37.23h-1.39c-21.93.19-41.42 19.22-53.87 37.23-32.04-22.29-22.29-65.29-2.28-90.78a89.265 89.265 0 0021.39-38.7c.74-5.18.98-10.42.71-15.65-10.67 5.19 4.5 11.14-21.26 11.14-3.33 0-5.49.92-8.34-3.69-2.84-4.61-13.28-5.58-13.28-5.58a23.421 23.421 0 0118.53-9.11c10.4-.51 20.81.66 30.84 3.47m-48.48 81.57c-6.62 23.45-12.97 48.76 19.91 73.84 1.98 1.51 4.32 3.09 6.87 4.67 10.34 5 20.37 10.63 30.01 16.87a36.315 36.315 0 0115.2 35.11c-.58-2.15-1.43-4.22-2.55-6.14a74.426 74.426 0 00-21.94-24.8c-8.92-5.11-18.11-9.76-27.51-13.93-30.84-16.05-44.66-41.42-35.22-77.31 6.39-24.28 13.65-38.45.25-61.05 26.47 6.34 20.2 34.26 15 52.82m-18-43.77s.38 1.1.77 2.69c1.45 6.49 1.56 13.2.31 19.73-2.65 15.14-9.41 28.65-10.74 44.3a65.562 65.562 0 0010.34 44.83 77.65 77.65 0 0024.07 20.9c9.65 5.42 19.92 9.22 29.87 14.6 15.84 8.59 36.86 23.97 35.18 45.01-5.58-13.29-21.17-25.27-34.05-32.51-11.29-6.35-24.63-11.6-36.78-17.76a74.112 74.112 0 01-40.39-45.7 98.224 98.224 0 013.26-52.62c4.2-15.19 10.31-29.79 18.18-43.45m80.83-65.27c-7.89-5.58-24.87-1.84-24.87-1.84 3.67.96 7.27 2.19 10.75 3.69a63.507 63.507 0 0116.51 11.98c6.84 5 16.12 5 22.96 0 4.8-4.87 10.38-8.92 16.5-11.98 3.49-1.5 7.08-2.74 10.75-3.69 0 0-16.97-3.69-24.87 1.84-11.01 7.8-16.58 7.8-27.73 0m90.56 108.89c6.62 23.45 12.97 48.76-19.92 73.84-1.98 1.51-4.32 3.09-6.85 4.67a275.088 275.088 0 00-30.01 16.87 36.341 36.341 0 00-15.21 35.11c.58-2.15 1.45-4.22 2.57-6.14a73.896 73.896 0 0121.93-24.87c8.93-5.11 18.11-9.76 27.51-13.93 30.84-16.05 44.68-41.42 35.22-77.31-6.39-24.28-13.64-38.45-.23-61.05-26.57 6.34-20.21 34.26-15.01 52.81m18.11-43.69s-.38 1.1-.77 2.69a48.926 48.926 0 00-.31 19.73c2.63 15.15 9.4 28.68 10.74 44.3a65.562 65.562 0 01-10.34 44.83 77.78 77.78 0 01-24.07 20.9c-9.67 5.42-19.92 9.22-29.87 14.6-15.88 8.59-36.88 23.97-35.18 45.01 5.58-13.29 21.16-25.27 34.03-32.51 11.29-6.35 24.65-11.6 36.79-17.76a74.185 74.185 0 0040.4-45.75 98.42 98.42 0 00-3.26-52.62 186.488 186.488 0 00-18.21-43.43m-74.99-28.29c-1.91 3.92-3.22 8.1-3.9 12.41-2.18 9.31 1.72 18.99 9.75 24.17 1.54.75 3.17 1.3 4.85 1.62a62.806 62.806 0 01-4.34-6.17 73.623 73.623 0 01-6.38-32.04"
    fill-rule="evenodd" clip-rule="evenodd" fill="#2355fc"></path>
  <path class="VahakLogoBlue_n_svg__st2"
    d="M584.76 166.2l-67.71 162.07h-32.79L416.55 166.2h32.56l51.43 122.91 51.43-122.91h32.79zM702.72 254.9v73.37h-28.07v-14.63c-8.96 11.32-24.3 17.46-38.45 17.46-25.95 0-45.53-15.33-45.53-38.93 0-24.06 22.41-40.58 49.78-40.58 11.09 0 23.12 2.36 34.21 6.61v-3.3c0-14.16-7.78-27.84-29.96-27.84-11.56 0-22.65 4.01-33.03 9.2l-9.91-20.05c17.22-8.49 33.26-12.74 48.6-12.74 32.3 0 52.36 20.52 52.36 51.43zm-28.08 35.15v-13.68c-8.96-3.07-19.11-4.72-29.96-4.72-14.39 0-25.95 8.02-25.95 19.58 0 11.56 10.14 18.87 23.83 18.87 13.92 0 28.78-7.08 32.08-20.05zM845.68 250.65v77.61h-27.84v-71.95c0-16.51-10.62-28.31-25.71-28.31-16.28 0-29.72 11.8-29.72 26.42v73.84h-28.78v-164.9h28.78v59.69c7.31-11.8 21.7-19.58 37.98-19.58 26.65 0 45.29 19.58 45.29 47.18zM982.27 254.9v73.37H954.2v-14.63c-8.97 11.32-24.3 17.46-38.45 17.46-25.95 0-45.53-15.33-45.53-38.93 0-24.06 22.41-40.58 49.78-40.58 11.09 0 23.12 2.36 34.21 6.61v-3.3c0-14.16-7.79-27.84-29.96-27.84-11.56 0-22.65 4.01-33.03 9.2l-9.91-20.05c17.22-8.49 33.26-12.74 48.6-12.74 32.31 0 52.36 20.52 52.36 51.43zm-28.07 35.15v-13.68c-8.97-3.07-19.11-4.72-29.96-4.72-14.39 0-25.95 8.02-25.95 19.58 0 11.56 10.14 18.87 23.83 18.87 13.92 0 28.78-7.08 32.08-20.05zM1078.29 260.8l48.6 67.47h-33.5l-34.44-48.6-17.22 18.17v30.43h-28.78v-164.9h28.78V264.1l52.84-57.8h33.97l-50.25 54.5z">
  </path>
</svg>
